<?xml version="1.0" encoding="UTF-8"?>
<svg xmlns="http://www.w3.org/2000/svg" xmlns:xlink="http://www.w3.org/1999/xlink" version="1.1" viewBox="0 0 512 512">
  <defs>
    <style>
      .cls-1 {
        fill: none;
      }

      .cls-2 {
        fill: #fff;
      }

      .cls-3 {
        clip-path: url(#clippath);
      }
    </style>
    <clipPath id="clippath">
      <rect class="cls-1" x="-.5" width="512" height="512"/>
    </clipPath>
  </defs>
  <!-- Generator: Adobe Illustrator 28.7.1, SVG Export Plug-In . SVG Version: 1.2.0 Build 142)  -->
  <g>
    <g id="Layer_1">
      <g id="Layer_1-2" data-name="Layer_1">
        <g class="cls-3">
          <g>
            <path class="cls-2" d="M194.3,628.3c-1.1-.3-2.1-.9-3.2-.9-9.7,0-19.1,1.2-27.4,6.9-4.3,3-8.7,5.5-13.9,6.6-.2,0-.4,0-.7.2-2.6.2-5.2.5-6.9-2-1.6-2.4-1-4.8.3-7.2,1.9-3.7,5-6.1,8.4-8.2,7.7-4.8,16.2-6.8,25.1-7.6,8.8-.8,17.6-1.1,26.5-1.9-1.8-.5-3.6-1.1-5.4-1.4-15.7-2.7-31-1.4-45.8,4.5-5.6,2.2-9.8,5.8-10.7,12.1,0,.2-.2.4-.3.6-2.1-5.5-.7-10.9,3.8-14.8,4.8-4.2,10.8-5.7,16.8-6.8,16.4-3,32.8-1.9,49,1.5,1.4.3,3,.4,4.4,0,3.9-1.1,5.7-4.9,3.8-8.5-1.9-3.5-4.1-7-6.6-10.1-17.3-22.1-22.6-47.5-21-74.9,1.6-26.6,10.6-50.9,23.4-73.9,3-5.5,6-11,8.9-16.6.7-1.4,1.2-2.9,1.5-4.4.7-3.1-.8-4.5-3.9-3.6-.9.3-1.8.6-2.8,1-11.1,4.3-20.9,10.6-29.8,18.5-17.8,15.8-33.9,33.2-46.8,53.3-6.2,9.6-11.6,19.7-14.3,31-.5,2.2-.6,4.6-.9,6.9-.2,1.6.4,2.3,2,2.8,3.1.9,6.2,1.9,8.9,3.5,2.4,1.4,4.4,3.7,6.5,5.7,2.2,2.2,4.2,4.4,6.2,6.7,1.9,2.2,4.1,4.4,5.5,7,1.8,3.4.5,7.1-2.6,9-3.1,2-6.6,1.5-9.3-1.4-2.7-2.8-3.8-6.4-4.5-10.1-1.4-7.2-2.8-8.5-10.2-8.4-2.8,0-5.7.5-8.3,1.4-3.7,1.3-5.8,4.2-5.7,8.3,0,2.7.4,5.4.7,8,.4,3.8.4,7.6-1.2,11.2-2,4.6-6.9,7.1-11.8,6-3-.7-5-3-5.3-6.4-.5-6.7,2.3-12.2,6.1-17.4,1.1-1.5,2.1-3.2,2.5-4.9.6-2.2-.9-3.8-3.2-3.4-9.3,1.7-17.4,5.4-22.3,14.2-1.5,2.6-3,5.2-4.8,7.6-1.2,1.6-2.9,2.8-4.6,3.9-2.3,1.4-4.8,1.8-7.2.3-2.5-1.6-3.7-3.9-3.5-6.8.5-7.6,4-13.5,10.5-17.6,8.5-5.4,17.9-8.5,27.7-10.7,1.5-.3,3-.7,4.5-1.1-12.4-.5-24,2.1-34.7,8.5-5.1,3-8.3,7.5-9.4,13.3-.2,1.2-.2,2.4-.3,4-2.9-3.4-3.1-7.1-2.5-10.9.8-5.2,3.9-8.9,7.9-12.1,7-5.5,15.2-8.2,23.8-9.8,7.8-1.4,15.6-1.5,23.5-.6h2.1c1.1-4.1,2.1-8.2,3.2-12.3,5.2-18.9,14.5-35.6,27-50.7,9.6-11.6,20.1-22.1,31.6-31.8,11.7-9.9,25.6-15.9,39.5-21.9,6.4-2.7,12.8-5.4,19.3-8.1.5.7.8,1.3,1.1,1.9,2.9,5.1,7.3,7.3,13,7.1,5.6-.2,10.1-2.4,12.7-7.4,1-1.8,1.8-2,3.7-1.5,23.8,6.2,44.6,18,63.4,33.7,12.1,10.1,24.7,19.7,38.3,27.9,9.2,5.5,12.4,6.5,24.2,6.7,1,6.1,5,10.2,10,13.5v.7c-3.2.5-6.4,1.4-9.6,1.4-10.2.2-19.3-3.6-28-8.5-12.4-7-23.6-15.9-34.5-25-12.8-10.7-25.3-21.8-39.5-30.7-3.6-2.2-7.6-3.9-11.5-5.3-3.1-1.1-5,.7-4.2,3.9,1.1,3.9,2.6,7.8,4.4,11.4,4.9,9.7,10.5,19.2,15.1,29,8.9,18.9,14.1,38.9,14.5,59.9.4,23.5-6.2,45-19.3,64.5-2.8,4.2-5.5,8.4-8.2,12.6-.4.6-.8,1.3-1.1,1.9-1,2.2-2.8,4.6-.9,6.9,2.1,2.5,4.8,3.7,8.4,2.9,18.2-3.9,36.4-4.2,54.5,0,4.6,1.1,9,2.8,12.6,6,4.3,3.9,5.6,9.8,2.8,14.4-.1-6.4-4.2-9.7-9.2-12-12.2-5.6-25.2-7.5-38.5-6.7-4.2.3-8.4,1.1-12.5,1.7v.8c4.2.2,8.3.4,12.4.6,9.4.5,18.8,1.4,27.8,4.6,6.3,2.2,12.1,5.3,16.4,10.6,1,1.3,1.9,2.7,2.6,4.2,1.3,3,.2,5.4-3,5.8-2.8.3-5.8,0-8.5-.8-2.8-.9-5.6-2.4-7.9-4.2-6.9-5.5-15-7.2-23.4-8-2.2-.2-4.5,0-6.7,0-.7,0-1.4.7-2,1.1.5.6.8,1.5,1.4,1.9,2.6,1.7,5.5,3.1,8,5,2.7,2,5.3,4.3,7.7,6.8,1.7,1.8,2.8,4,1.5,6.6-1.2,2.5-3.5,3.3-6.1,3.5-5.3.3-9.1-2.2-12.2-6.3-2.3-3-4.4-6.2-7.2-8.5-3.4-2.8-7.4-4.8-11.1-7-5.3-3.2-10.9-6-16-9.5-5.3-3.7-6.6-7.4-4.3-13.5,1.8-4.9,4.6-9.5,7.2-14.1,3.3-5.7,7-11.2,10.2-16.9,6-10.6,7-22.1,6.1-33.9-.7-8.9-2.5-17.6-6.6-25.7-.8-1.6-1.7-3.2-2.8-4.6-2-2.7-4.3-3-7-1-1.1.8-2.1,1.7-2.9,2.8-1.5,1.9-2.8,3.9-4.2,5.8-5.2,7.4-10.5,9.2-19.3,6.8-5.4-1.5-9.6-4.8-13.5-8.5-2.2-2.1-4.3-4.2-6.7-6-3.5-2.6-5.7-2.1-8.1,1.5-3.9,5.8-5.8,12.4-7.2,19.2-2.8,13.6-2.9,27.1,2,40.2,3.4,9,8.9,16.9,14.2,24.9,1.8,2.8,3.7,5.6,5.1,8.7,3.3,7.4,1.8,12.5-5.1,16.6-4.2,2.5-8.7,4.6-13.3,6.4-8.2,3.2-15.1,7.7-19.8,15.4-2.8,4.6-7,7.1-12.5,7.1s-4.9-.8-6.2-3.3-.5-4.8,1.1-6.6c2.2-2.4,4.6-4.7,7.2-6.6,2.6-1.9,5.6-3.4,8.4-5.1,1-.6,1.9-1.4,2.8-2.1v-.7l.7-.2Z"/>
            <path class="cls-2" d="M402.6,473.6c1.3,6,5.5,9.2,11.6,11.1-4.1,1.7-7.6,2.8-11.4,1.2-7.1-2.9-11-9.5-10.9-17.2,0-3.1-1.3-6.1-1.9-9.2-1.3-6.9-1.9-13.8-.3-20.7.3-1.5.8-3.1,1.5-4.4,1.6-3.1,1.3-5.9,0-9-1.1-2.6-1.9-5.3-2.5-8.1-.3-1.5-.2-3.3.2-4.9,1.2-5.1,6-7.7,11-5.8,5.9,2.2,8.4,7.1,9.6,12.8,1,4.7-.1,9.1-2.1,13.3-3.1,6.6-3.4,8.9,3.7,12.9,4,2.2,5.3,6.2,6.4,10.3.6-3.2-.2-6.2-2.3-8.6-2.1-2.3-4.6-4.1-7.3-6.4,1.9-.5,3.6-1.1,5.3-1.5,5.4-1,9-4,11-9.1,1.2-3.1,2.7-6.2,4-9.3,1-2.4.7-4.6-.8-7-6.1-9.4-1.5-21.2,9.1-23.9,8.4-2.1,17.4,3.4,18.5,11.5.6,4.1-.9,7.8-3.4,10.9-2.8,3.4-6.1,6.4-8.8,9.9-3.4,4.2-6.6,8.6-9.8,13.1-1.4,2-1,3.4.8,5.1,4.6,4.2,10.3,4.4,14.9.2,2.2-2,4.2-4.2,6.3-6.4,2-2.1,3.1-4.6,3.5-7.6.4-3.9,1.5-7.8,3.9-11.1,3.8-5.3,10.2-7,16.1-4.2,6.3,3,9.8,9.3,8.2,15.1-1.1,3.9-3.7,6.8-7.4,8.3-3.6,1.5-7.4,2.1-11.1,3.2-1.1.3-2.3.6-3.2,1.3-4.3,3-8.5,6.1-12.7,9.1-1.4,1-3,1.8-4.3,2.9-2.2,1.8-1.9,4.3.7,5.5,1.1.5,2.3.9,3.4.8,5.3-.4,10.6-.7,15.8-1.5,1.4-.2,2.6-1.5,3.8-2.5,2.3-2.1,4.2-4.7,6.8-6.4,5.8-3.7,12.7-2.1,16.5,3.7,2.3,3.4,3.6,7.1,3.1,11.2-.8,6.5-6.4,10.8-14.1,10.2-3.8-.3-7.8-1.1-11.2-2.7-7.5-3.4-15.3-2.9-23.1-2.4-1.8.1-3.7,1.5-5.1,2.8-5,4.6-10.2,9-16.6,11.7-6,2.5-12,3-17.9-.1-3.5-1.8-6.1-4.5-7.7-8.1h.2Z"/>
            <path class="cls-2" d="M183,544c-3.3-41,4.6-82.2,26.2-110.6-18.8,34.3-24.5,71.7-26.2,110.6Z"/>
            <path class="cls-2" d="M181.4,417c-27.5,23.4-52.8,48.6-68.7,81.8,12.8-35.7,37.9-61.2,68.7-81.8Z"/>
            <path class="cls-2" d="M292.6,438.4c2.5,3.7,5.1,7.2,7.3,11.1,6.2,11,9.8,23,11.6,35.4,1.5,10.6,2,21.4,2.9,32.1,0,.8,0,1.6-.2,2.4-1.5-14-4-27.7-7.4-41.3-3.4-13.6-7.1-27.2-14.9-39.1.2-.2.4-.4.7-.5h0Z"/>
            <path class="cls-2" d="M319.7,420.8c4.2,2.4,8.6,4.4,12.5,7.2,4.3,3,8.3,6.6,12.3,10.2,6.5,5.9,12.9,12,19.8,18.5-16.6-10.3-30-23.7-44.5-35.8h0Z"/>
            <g>
              <path class="cls-2" d="M320.5,321.4c-29.8-5.1-46.1-24.7-50.9-54.7-.4,2.7-.9,4.9-1,7.1-1.2,18.7,3.4,35.7,15.4,50.2,13.6,16.5,31.1,24.8,52.6,21.8,23.9-3.3,39.8-17,47.9-39.7,2-5.7,2.8-11.7,3-17.8-15.2,25.6-37.5,38-66.9,33h-.1Z"/>
              <path class="cls-2" d="M328.1,251.9c0,2.6,2.7,5.1,5.8,5.1s4.7-1.7,4.7-3.8-2.7-5-5.6-5.1c-2.7,0-4.8,1.6-4.9,3.8Z"/>
              <path class="cls-2" d="M325.4,246.6c9-.9,13-8.9,7.9-15.9-2.7-3.7-6.4-5.3-10.9-5.3h-1.7c-6.3.7-10.4,5.8-9,11.4,1.4,5.8,7.8,10.3,13.7,9.7h0Z"/>
            </g>
            <g>
              <path class="cls-2" d="M179.1,261.6c2.3,0,4.3-1.9,4.2-4,0-1.9-1.4-3.1-3.4-3.1s-4.5,2.1-4.4,4.2c0,1.7,1.6,2.9,3.6,2.9h0Z"/>
              <path class="cls-2" d="M208.2,290.7c1.6-7.6.4-15-2-22.3-.9-2.9-2.1-5.7-3.3-9.1,0,4.4.2,8.1,0,11.8-1.2,20-21.1,31.8-39.2,23.2-3.6-1.7-6.8-4.4-10.1-6.6,5,9.9,11.7,18.2,22.9,21.6,14.3,4.5,28.5-4,31.7-18.6h0Z"/>
              <path class="cls-2" d="M165.7,260.7c5.2,0,9.9-4.4,9.8-9.2,0-3.7-3-6.3-7-6.3s-9.8,4.2-9.8,8.9,3,6.6,7,6.6Z"/>
            </g>
            <path class="cls-2" d="M424.5,258.1c-2.5-22.3-9.9-42.9-21.8-61.8-16.1-25.5-37.7-45.1-64.2-59.3-.8-.4-1.6-.9-2.5-1.4,5.3-5.8,11.5-10.1,18.1-13.7,5.3-2.9,10.5-6.1,16.7-6.9,4.1-.5,8.4-.5,12.5-1.1,8.4-1.2,21.5-10.2,22-22,.4-9.9-3.1-18.5-10.5-25-6-5.3-13.2-7.9-21.2-5.8-9.2,2.3-16.7,7.3-21.2,16-2.5,4.8-.8,9.2,3.6,11.7,4.2,2.4,8,.5,8.7-4.3.2-1.4.3-2.8.8-4.2.7-1.9,2-3.1,4.3-2.8,1.9.3,3.3,1.9,3.4,4.1.3,3.2-1.3,5.6-3.2,7.9-5.7,6.8-12.3,12.4-20.2,16.6-5.4,2.9-9.9,6.7-13.6,11.6-3.4,4.5-6.4,9.3-9.7,14.2-35.4-15.3-72.4-17.9-109.9-9.9-1-5.5-1.6-10.8-3.1-16-1.5-5.1-3.8-10-5.7-15.1-2.7-7.1-5.2-14.3-6.1-22-.9-7.6.6-14.4,6.4-19.8,6.3-5.9,18.4-3.7,21.2,5.3,1.3,4.3,1.7,8.5-.2,12.7-2,4.4-4.9,7.8-9.8,9.2,1,.2,1.9.4,2.8.2,5.7-1,9.8-4.3,12.1-9.4,4.7-10.5,3.7-25.2-7.5-34.2-7.4-6-16.1-9-25.5-10.3-18.5-2.5-36.7,10-40.6,28.3-2.4,11.5,0,21.4,9.9,28.6,1.8,1.3,3.6,2.8,5.3,4.2,10.1,8.6,16.9,19.7,23.3,31.1,1,1.7,1.9,3.5,2.9,5.4,0-.4.2-.6.2-.7-3.9-10.3-8.2-20.4-15-29.2-4.1-5.3-9-9.8-14.3-13.9-4.1-3.1-7.6-6.7-8.5-12-.5-3.2-.6-6.6-.3-9.8,1.7-18.2,20.4-31.8,38.7-28-6.2,1.5-11.3,4.6-15.8,8.6-4.2,3.8-6.9,8.4-7.8,14-1.8,10.9,1.5,20.3,8.1,28.9,13.8,18,21.1,38.2,20.6,61,0,0-.1.2-.2.3-.2-.5-.5-1.1-.7-1.6-4.3,1.1-8.5,2.3-11.8,5.3-2.1,1.9-2.3,4.3-.2,6.3,1.3,1.3,2.9,2.5,4.6,3.1,10.7,3.7,21.2,2.9,31.2-2.5,2.8-1.5,5.6-3.5,5-7.3s-3.9-5-7.1-5.5c-4.3-.6-8.6-.7-12.9-.9-.3,0-.6,0-1-.2.2-.7.3-1.3.5-2.3,3.7.2,7.3,0,10.8.7,3.3.5,6.6,1.5,9.5,2.9,4,2,4.7,5.5,2.1,9.2-1.2,1.7-2.9,3.3-4.7,4.4-10.5,6.6-22.2,8.6-34.4,7.9-4.7-.3-9.2-1.2-13.1-4-3.5-2.6-4.1-6.2-1.1-9.3,2.2-2.3,4.9-4.3,7.7-5.6,4.7-2.1,9.6-3.5,14.8-5.3-.2-1-.5-2.3-.8-3.7-.6.2-1,.2-1.3.3-10.6,3.9-20.7,8.6-30.1,14.8-13.3,8.8-23.9,20.3-33,33.3-14.4,20.6-23.5,43.2-25.3,68.5-1.6,22.3,1.9,43.7,12,63.8,13,26,33.4,44.8,58.6,58.6,33.8,18.5,70.3,24.5,108.4,22.7,6.4-.3,12.9-.6,19.8-1-1.6.3-2.6.6-3.6.7-14.3,1.3-28.6,2.9-42.9,3.8-13.7.9-27.4.2-40.9-2.2-23.6-4.3-44.8-14-64-28.4-32-23.9-53.8-54.2-59.1-94.7-1.9-14.5-1.3-28.8,2.4-43,4.2-16,11.8-30.3,21.3-43.7,8.5-12,17.9-23.3,29.7-32.2,13.8-10.5,29.6-16.8,46.1-21.3.6-.2,1.2-.4,1.9-.7-.5-1.8-1-3.3-1.4-4.8h-.9c-.9.2-1.7.5-2.6.8-23.2,7.7-44.2,19.3-62.5,35.6-27.4,24.4-41.8,54.9-42.5,91.6-.4,24.4,6.1,47,18.4,68,18.9,32.3,46.7,54.3,81.1,68.1,13.5,5.4,27.4,9.4,42,10.9,7.3.8,14.8.8,22.1,1.4,15.2,1.1,30.4.2,45.4-2.2,24-3.9,46.4-11.9,66.6-25.7,15.6-10.6,28.5-23.7,38-40,13.6-23.5,17.8-48.9,14.8-75.7v-.2ZM358.2,76.2c3.4-7.6,14.6-13.3,23.1-12.1,12.8,1.8,19.6,14.2,20.5,24.1.7,7.6-5.6,17.3-12.9,19.7,6.2-11.4,5.5-20.4-1.6-28.5-6.1-7-18.9-9.2-29.1-3.1h0ZM304.6,139.1c2.9-.7,6.1-.8,9-.6,3.4.2,6.7,1.2,10.2,1.8-.3,1.1-.4,1.7-.6,2.3-2.8-.6-5.6-1.5-8.3-1.8-2.2-.3-4.5-.2-6.6.3-4.1.9-5.5,4.1-3.3,7.6,1.5,2.4,3.6,4.6,5.9,6.4,5,3.9,10.7,6.3,17,6.9,2.1.2,4.4,0,6.4-.6,3.5-1,4.8-3.9,2.9-7-1.6-2.6-4-4.7-6.1-7-.5-.6-1.3-1-2.1-1.5.5-.8.9-1.5,1.4-2.4,6.1,2.9,12.1,5.9,15.6,11.9,2.6,4.4.6,9-4.3,10.7-3.6,1.3-7.4,1.2-11.1.4-9.9-2-18.7-6.2-25.9-13.4-1.6-1.6-2.9-3.6-3.9-5.7-1.8-3.8-.4-7.4,3.7-8.4h0ZM214.5,306.2c-8.2,9.6-21.6,11.9-33.7,11-11.9-.9-21.3-8.8-27.1-18.9-9.4-16.5-8.7-41.4,6.1-54.9,6.8-6.2,16-9.2,25.2-8.7,8.8.4,16.3,5.1,22,11.6,12.4,14.3,13.4,37.2,5.5,51.1-4.5,7.9-10.9,13.5-19.3,17-1.2.5-2.3.9-3.5,1.4,15.6-1.5,26.4-11.3,33.5-29.7-1,7.5-3.7,14.3-8.6,20h0ZM171.5,226.8c20.7-8.6,43.5,1.4,52.4,22.4-12.8-18.3-30.4-25.2-52.4-22.4ZM271.7,372.5c-4,7-10.3,9.6-18.1,7.3-8.6-2.5-14.7-8.4-19.7-15.5-1.9-2.6-3.5-5.4-5-7.8,5,2.9,10.1,6.3,15.5,8.8,10.6,5.1,19.6,3.4,28.2-4.7,1.3-1.2,2.6-2.4,3.9-3.7-.8,5.5-2.1,10.7-4.8,15.6h0ZM408,285.8c-.2,34-24.2,63-57.5,69.9-20.4,4.2-38.8-.6-55.9-11.8-15.7-10.3-27.2-23.9-32.5-42.3-1.7-6.1-2.2-12.3-2-18.7.3-9,.8-17.9,3.7-26.5,7.9-23,24-37.3,47.2-43.6,37.9-10.2,82.6,11.2,94.2,53.2,1.8,6.4,3,19.7,2.8,19.7h0Z"/>
          </g>
        </g>
      </g>
    </g>
  </g>
</svg>