<?xml version="1.0" encoding="UTF-8"?>
<svg xmlns="http://www.w3.org/2000/svg" version="1.1" viewBox="0 0 512 512">
  <defs>
    <style>
      .cls-1 {
        fill: #fff;
      }
    </style>
  </defs>
  <!-- Generator: Adobe Illustrator 28.7.1, SVG Export Plug-In . SVG Version: 1.2.0 Build 142)  -->
  <g>
    <g id="Layer_1">
      <g id="Layer_1-2" data-name="Layer_1">
        <g id="Layer_1-2">
          <g>
            <path class="cls-1" d="M211.2,449c-.7-.2-1.5-.7-2.2-.6-6.7,0-13.2.8-18.9,4.8-2.9,2-6,3.8-9.6,4.5-.2,0-.3,0-.5.1-1.8.2-3.6.4-4.8-1.4-1.1-1.7-.7-3.3.2-5,1.3-2.5,3.5-4.2,5.8-5.7,5.3-3.3,11.2-4.7,17.3-5.3,6.1-.5,12.1-.8,18.3-1.3-1.2-.3-2.5-.7-3.7-1-10.8-1.9-21.4-1-31.6,3.1-3.8,1.5-6.8,4-7.4,8.4,0,.1-.1.3-.2.4-1.4-3.8-.5-7.5,2.6-10.2,3.3-2.9,7.4-3.9,11.6-4.7,11.3-2,22.6-1.3,33.8,1,1,.2,2.1.3,3,0,2.7-.8,3.9-3.4,2.6-5.9-1.3-2.4-2.8-4.8-4.5-7-12-15.2-15.6-32.8-14.5-51.7,1.1-18.4,7.3-35.1,16.1-51,2.1-3.8,4.1-7.6,6.1-11.4.5-.9.8-2,1.1-3.1.4-2.1-.6-3.1-2.7-2.5-.6.2-1.3.4-1.9.7-7.6,3-14.4,7.3-20.5,12.7-12.3,10.9-23.4,22.9-32.3,36.8-4.3,6.6-8,13.6-9.8,21.4-.4,1.5-.4,3.2-.6,4.7-.2,1.1.3,1.6,1.4,1.9,2.1.6,4.3,1.3,6.1,2.4,1.7,1,3.1,2.5,4.5,3.9s2.9,3.1,4.3,4.6c1.3,1.5,2.8,3,3.8,4.8,1.2,2.3.3,4.9-1.8,6.2-2.1,1.4-4.6,1-6.4-1-1.8-2-2.6-4.4-3.1-7-.9-4.9-2-5.9-7-5.8-1.9,0-3.9.4-5.7,1-2.6.9-4,2.9-3.9,5.7,0,1.8.3,3.7.5,5.5.3,2.6.3,5.3-.8,7.7-1.4,3.2-4.8,4.9-8.2,4.1-2.1-.5-3.5-2.1-3.6-4.4-.4-4.6,1.6-8.4,4.2-12,.7-1,1.4-2.2,1.7-3.4.4-1.5-.6-2.6-2.2-2.3-6.4,1.2-12,3.7-15.4,9.8-1,1.8-2,3.6-3.3,5.2-.8,1.1-2,2-3.1,2.7-1.6,1-3.3,1.2-5,.2-1.7-1.1-2.5-2.7-2.4-4.7.4-5.3,2.8-9.3,7.2-12.1,5.9-3.7,12.4-5.9,19.1-7.4,1-.2,2.1-.4,3.1-.8-8.5-.3-16.6,1.5-23.9,5.9-3.5,2.1-5.7,5.2-6.5,9.2-.2.8,0,1.7-.2,2.8-2-2.3-2.1-4.9-1.7-7.5.6-3.6,2.7-6.2,5.5-8.3,4.8-3.8,10.5-5.7,16.4-6.8,5.4-1,10.8-1.1,16.2-.4h1.5c.7-2.8,1.4-5.7,2.2-8.5,3.6-13,10-24.6,18.6-35,6.6-8,13.9-15.3,21.8-21.9,8.1-6.8,17.7-10.9,27.2-15.1,4.4-1.9,8.8-3.7,13.3-5.6.3.5.6.9.8,1.3,2,3.5,5,5,9,4.9,3.9-.1,6.9-1.7,8.8-5.1.7-1.2,1.3-1.4,2.5-1.1,16.4,4.3,30.8,12.4,43.7,23.3,8.3,7,17,13.6,26.4,19.2,6.3,3.8,8.6,4.4,16.7,4.6.7,4.2,3.5,7,6.9,9.3v.5c-2.2.3-4.4.9-6.6,1-7,.2-13.3-2.5-19.3-5.9-8.6-4.8-16.2-10.9-23.8-17.2-8.8-7.3-17.4-15-27.2-21.2-2.4-1.5-5.2-2.7-8-3.6-2.1-.7-3.5.5-2.9,2.7.8,2.7,1.8,5.4,3,7.9,3.4,6.7,7.2,13.2,10.4,20,6.1,13.1,9.7,26.8,10,41.3.3,16.2-4.3,31-13.3,44.5-1.9,2.9-3.8,5.8-5.6,8.7-.3.4-.6.9-.8,1.3-.7,1.5-1.9,3.1-.6,4.7,1.4,1.7,3.3,2.5,5.8,2,12.5-2.7,25.1-2.9,37.6,0,3.2.7,6.2,1.9,8.7,4.1,3,2.7,3.8,6.8,1.9,9.9,0-4.4-2.9-6.7-6.3-8.2-8.4-3.9-17.4-5.2-26.5-4.6-2.9.2-5.8.8-8.6,1.2v.6c2.9.1,5.7.3,8.5.4,6.5.3,13,1,19.2,3.2,4.3,1.5,8.3,3.7,11.3,7.3.7.9,1.3,1.9,1.8,2.9.9,2.1.1,3.8-2.1,4-1.9.2-4,0-5.9-.5-1.9-.6-3.8-1.6-5.4-2.9-4.8-3.8-10.3-4.9-16.1-5.5-1.5-.2-3.1,0-4.6,0s-.9.5-1.4.8c.3.4.5,1,1,1.3,1.8,1.2,3.8,2.2,5.5,3.4,1.9,1.4,3.7,3,5.3,4.7,1.2,1.2,1.9,2.8,1.1,4.5s-2.4,2.3-4.2,2.4c-3.7.2-6.3-1.5-8.4-4.3-1.6-2-3-4.3-5-5.9-2.3-1.9-5.1-3.3-7.7-4.8-3.7-2.2-7.5-4.1-11-6.6-3.7-2.5-4.5-5.1-2.9-9.3,1.3-3.4,3.1-6.6,5-9.7,2.2-3.9,4.8-7.7,7-11.6,4.1-7.3,4.8-15.2,4.2-23.4-.5-6.2-1.7-12.1-4.6-17.7-.6-1.1-1.2-2.2-1.9-3.2-1.4-1.8-3-2.1-4.8-.7-.7.5-1.4,1.2-2,1.9-1,1.3-1.9,2.7-2.9,4-3.6,5.1-7.3,6.3-13.3,4.7-3.7-1-6.6-3.3-9.3-5.9-1.5-1.4-2.9-2.9-4.6-4.1-2.4-1.8-3.9-1.4-5.6,1.1-2.7,4-4,8.6-4.9,13.2-1.9,9.4-2,18.7,1.4,27.7,2.3,6.2,6.2,11.6,9.8,17.2,1.3,1.9,2.6,3.9,3.5,6,2.3,5.1,1.3,8.6-3.5,11.5-2.9,1.7-6,3.2-9.2,4.4-5.6,2.2-10.4,5.3-13.7,10.6-1.9,3.1-4.8,4.9-8.6,4.9s-3.4-.6-4.3-2.3c-.9-1.7-.4-3.3.8-4.6,1.5-1.7,3.2-3.2,5-4.6,1.8-1.3,3.9-2.3,5.8-3.5.7-.4,1.3-.9,1.9-1.4v-.5.4h-.1Z"/>
            <path class="cls-1" d="M354.8,342.3c.9,4.1,3.8,6.4,8,7.7-2.8,1.2-5.2,1.9-7.8.8-4.9-2-7.5-6.6-7.5-11.9s-.9-4.2-1.3-6.3c-.9-4.7-1.3-9.5-.2-14.3.2-1,.5-2.1,1-3.1,1.1-2.1.9-4.1,0-6.2-.7-1.8-1.3-3.7-1.7-5.6-.2-1.1-.1-2.3.1-3.4.8-3.5,4.2-5.3,7.6-4,4.1,1.5,5.8,4.9,6.6,8.9.7,3.2-.1,6.2-1.5,9.2-2.1,4.6-2.3,6.1,2.6,8.9,2.8,1.5,3.6,4.3,4.4,7.1.4-2.2-.1-4.3-1.6-5.9-1.4-1.6-3.2-2.8-5-4.4,1.3-.4,2.5-.8,3.7-1,3.7-.7,6.2-2.8,7.6-6.3.9-2.1,1.8-4.2,2.7-6.4.7-1.7.5-3.2-.5-4.8-4.2-6.5-1-14.6,6.3-16.5,5.8-1.5,12,2.3,12.8,7.9.4,2.8-.6,5.3-2.3,7.5-1.9,2.4-4.2,4.4-6.1,6.8-2.4,2.9-4.6,6-6.7,9-1,1.4-.7,2.4.6,3.5,3.2,2.9,7.1,3,10.3.1,1.5-1.4,2.9-2.9,4.3-4.4s2.2-3.2,2.4-5.2c.3-2.7,1-5.3,2.7-7.6,2.6-3.6,7-4.8,11.1-2.9,4.3,2,6.8,6.4,5.6,10.4-.8,2.7-2.6,4.7-5.1,5.7-2.4,1-5.1,1.5-7.7,2.2-.8.2-1.6.4-2.2.9-3,2.1-5.8,4.2-8.8,6.3-1,.7-2,1.2-3,2-1.5,1.3-1.3,3,.5,3.8.7.3,1.6.6,2.4.6,3.6-.2,7.3-.5,10.9-1,.9-.1,1.8-1,2.6-1.7,1.6-1.4,2.9-3.3,4.7-4.4,4-2.6,8.7-1.4,11.4,2.5,1.6,2.3,2.5,4.9,2.2,7.7-.6,4.5-4.4,7.4-9.7,7-2.6-.2-5.4-.8-7.7-1.9-5.2-2.3-10.6-2-16-1.6-1.2,0-2.6,1-3.5,1.9-3.5,3.2-7,6.2-11.4,8.1-4.1,1.8-8.3,2.1-12.4,0-2.4-1.3-4.2-3.1-5.3-5.6h-.1Z"/>
            <path class="cls-1" d="M203.4,390.9c-2.3-28.3,3.2-56.7,18-76.3-13,23.6-16.9,49.4-18,76.3h0Z"/>
            <path class="cls-1" d="M202.3,303.3c-19,16.1-36.4,33.5-47.3,56.4,8.8-24.6,26.1-42.2,47.3-56.4Z"/>
            <path class="cls-1" d="M279,318.1c1.7,2.5,3.5,5,5,7.6,4.3,7.6,6.8,15.8,8,24.4,1.1,7.3,1.4,14.8,2,22.1,0,.6,0,1.1-.1,1.7-1-9.6-2.8-19.1-5.1-28.5-2.3-9.4-4.9-18.7-10.3-27,.2-.1.3-.2.5-.4h0Z"/>
            <path class="cls-1" d="M297.6,305.9c2.9,1.6,5.9,3,8.6,4.9,3,2.1,5.7,4.5,8.4,7,4.5,4.1,8.9,8.3,13.6,12.8-11.5-7.1-20.7-16.3-30.7-24.7h.1Z"/>
            <g>
              <path class="cls-1" d="M298.2,237.4c-20.6-3.5-31.8-17-35.1-37.7-.3,1.8-.6,3.3-.7,4.9-.8,12.9,2.4,24.6,10.6,34.6,9.4,11.4,21.4,17.1,36.3,15,16.5-2.3,27.4-11.7,33-27.3,1.4-3.9,1.9-8,2-12.3-10.5,17.6-25.8,26.2-46.1,22.8h0Z"/>
              <path class="cls-1" d="M303.4,189.5c0,1.8,1.9,3.5,4,3.5s3.2-1.2,3.3-2.6c0-1.7-1.9-3.5-3.8-3.5s-3.3,1.1-3.4,2.6h-.1Z"/>
              <path class="cls-1" d="M301.6,185.9c6.2-.6,8.9-6.2,5.5-10.9-1.8-2.5-4.4-3.6-7.5-3.6h-1.2c-4.4.5-7.1,4-6.2,7.9,1,4,5.4,7.1,9.4,6.7h0Z"/>
            </g>
            <g>
              <path class="cls-1" d="M200.7,196.2c1.6,0,2.9-1.3,2.9-2.8s-.9-2.1-2.3-2.1-3.1,1.4-3,2.9c0,1.2,1.1,2,2.5,2h0Z"/>
              <path class="cls-1" d="M220.8,216.2c1.1-5.2.2-10.4-1.3-15.4-.6-2-1.4-4-2.3-6.3,0,3,.1,5.6,0,8.1-.9,13.8-14.5,21.9-27,16-2.5-1.2-4.7-3-7-4.6,3.4,6.8,8.1,12.5,15.8,14.9,9.9,3.1,19.7-2.7,21.8-12.8h0Z"/>
              <path class="cls-1" d="M191.4,195.5c3.6,0,6.8-3,6.7-6.3,0-2.5-2.1-4.4-4.8-4.4s-6.8,2.9-6.7,6.1c0,2.6,2.1,4.6,4.8,4.6h0Z"/>
            </g>
            <path class="cls-1" d="M369.9,193.8c-1.7-15.4-6.8-29.6-15-42.6-11.1-17.6-26-31.1-44.3-40.9-.6-.3-1.1-.6-1.7-1,3.7-4,7.9-6.9,12.5-9.5,3.7-2,7.3-4.2,11.5-4.8,2.9-.4,5.8-.4,8.6-.8,5.8-.8,14.8-7.1,15.1-15.2.3-6.8-2.1-12.7-7.2-17.3-4.1-3.7-9.1-5.4-14.6-4-6.3,1.6-11.5,5.1-14.6,11-1.7,3.3-.6,6.4,2.5,8.1,2.9,1.7,5.5.3,6-3,.1-1,.2-2,.5-2.9.5-1.3,1.4-2.1,3-1.9,1.3.2,2.2,1.3,2.4,2.8.2,2.2-.9,3.9-2.2,5.4-3.9,4.7-8.5,8.6-13.9,11.4-3.7,2-6.9,4.6-9.3,8-2.3,3.1-4.4,6.4-6.7,9.8-24.4-10.6-49.9-12.4-75.7-6.8-.7-3.8-1.1-7.5-2.1-11s-2.6-6.9-3.9-10.4c-1.9-4.9-3.6-9.9-4.2-15.1-.6-5.2.4-9.9,4.4-13.7,4.3-4.1,12.7-2.6,14.6,3.6.9,3,1.2,5.8-.1,8.7-1.3,3-3.3,5.4-6.7,6.3.7.2,1.3.2,1.9,0,3.9-.7,6.7-2.9,8.3-6.5,3.3-7.2,2.5-17.4-5.2-23.6-5.1-4.1-11.1-6.2-17.5-7.1-12.8-1.8-25.3,6.9-28,19.5-1.7,7.9,0,14.7,6.8,19.7,1.3.9,2.4,1.9,3.6,2.9,6.9,6,11.7,13.6,16,21.4.7,1.2,1.3,2.4,2,3.8,0-.3.1-.4.1-.5-2.7-7.1-5.6-14.1-10.3-20.1-2.8-3.7-6.2-6.8-9.8-9.6-2.8-2.1-5.3-4.6-5.8-8.3-.4-2.2-.4-4.5-.2-6.8,1.2-12.6,14.1-21.9,26.7-19.3-4.3,1-7.8,3.1-10.9,5.9-2.9,2.6-4.7,5.8-5.4,9.7-1.2,7.5,1,14,5.6,19.9,9.5,12.4,14.5,26.3,14.2,42.1l-.2.2c-.2-.4-.3-.7-.5-1.1-3,.8-5.9,1.6-8.1,3.7-1.5,1.3-1.6,3-.2,4.3.9.9,2,1.7,3.2,2.1,7.4,2.6,14.6,2,21.5-1.7,1.9-1,3.9-2.4,3.5-5s-2.7-3.5-4.9-3.8c-2.9-.4-5.9-.4-8.9-.7h-.7c.1-.5.2-.9.4-1.6,2.5,0,5,0,7.4.5,2.2.4,4.5,1,6.6,2,2.8,1.4,3.3,3.8,1.4,6.3-.9,1.2-2,2.3-3.2,3.1-7.2,4.6-15.3,6-23.7,5.5-3.2-.2-6.4-.8-9-2.8-2.4-1.8-2.8-4.2-.8-6.4,1.5-1.6,3.3-3,5.3-3.9,3.2-1.5,6.6-2.4,10.2-3.7-.1-.7-.3-1.6-.5-2.6-.4,0-.7,0-.9.2-7.3,2.7-14.3,5.9-20.7,10.2-9.2,6.1-16.5,14-22.7,22.9-9.9,14.2-16.2,29.8-17.4,47.2-1.1,15.4,1.3,30.1,8.3,44,9,17.9,23,30.9,40.4,40.4,23.3,12.7,48.5,16.9,74.7,15.7,4.4-.2,8.9-.4,13.7-.7-1.1.2-1.8.4-2.5.5-9.9.9-19.7,2-29.6,2.6-9.4.6-18.9.1-28.2-1.5-16.3-2.9-30.9-9.7-44.1-19.6-22-16.5-37.1-37.3-40.7-65.3-1.3-10-.9-19.9,1.6-29.6,2.9-11,8.1-20.9,14.7-30.1,5.9-8.3,12.3-16,20.5-22.2,9.5-7.2,20.4-11.6,31.8-14.7.4,0,.8-.3,1.3-.5-.4-1.2-.7-2.3-1-3.3h-.6c-.6.2-1.2.3-1.8.5-16,5.3-30.5,13.3-43.1,24.5-18.9,16.8-28.8,37.8-29.3,63.1-.3,16.8,4.2,32.4,12.7,46.9,13,22.3,32.2,37.4,55.9,46.9,9.3,3.7,18.9,6.5,28.9,7.5,5.1.5,10.2.6,15.3.9,10.5.8,20.9.1,31.3-1.5,16.5-2.7,32-8.2,45.9-17.7,10.7-7.3,19.7-16.3,26.2-27.6,9.4-16.2,12.3-33.7,10.2-52.2l-.6.8h0ZM324.2,68.3c2.3-5.3,10.1-9.2,15.9-8.3,8.8,1.2,13.5,9.8,14.2,16.6.5,5.3-3.9,11.9-8.9,13.6,4.3-7.8,3.8-14-1.1-19.6-4.2-4.8-13-6.3-20-2.2h-.1ZM287.3,111.8c2-.5,4.2-.6,6.2-.4,2.3.2,4.6.8,7,1.3-.2.7-.3,1.2-.4,1.6-2-.4-3.8-1-5.7-1.2-1.5-.2-3.1,0-4.6.2-2.8.6-3.8,2.8-2.3,5.3,1.1,1.7,2.5,3.2,4,4.4,3.4,2.7,7.4,4.3,11.7,4.8,1.4.2,3,0,4.4-.4,2.4-.7,3.3-2.7,2-4.8-1.1-1.8-2.8-3.2-4.2-4.8-.4-.4-.9-.7-1.4-1,.3-.6.6-1,1-1.7,4.2,2,8.3,4,10.8,8.2,1.8,3,.4,6.2-3,7.4-2.5.9-5.1.8-7.6.3-6.8-1.4-12.9-4.3-17.8-9.2-1.1-1.1-2-2.5-2.7-3.9-1.3-2.6-.3-5.1,2.6-5.8,0,0,0-.3,0-.3ZM225.1,226.9c-5.7,6.6-14.9,8.2-23.2,7.6-8.2-.6-14.7-6.1-18.7-13.1-6.5-11.4-6-28.6,4.2-37.8,4.7-4.3,11.1-6.3,17.4-6s11.2,3.5,15.1,8c8.6,9.9,9.3,25.6,3.8,35.3-3.1,5.5-7.5,9.3-13.3,11.7-.8.3-1.6.7-2.4,1,10.7-1,18.2-7.8,23.1-20.5-.7,5.1-2.5,9.8-5.9,13.8h-.1ZM195.4,172.2c14.3-5.9,30,.9,36.1,15.4-8.8-12.6-20.9-17.4-36.1-15.4ZM264.5,272.6c-2.7,4.8-7.1,6.6-12.5,5-5.9-1.7-10.1-5.8-13.6-10.7-1.3-1.8-2.4-3.8-3.4-5.4,3.5,2,6.9,4.3,10.7,6.1,7.3,3.5,13.5,2.3,19.4-3.3.9-.8,1.8-1.7,2.7-2.6-.6,3.8-1.4,7.4-3.3,10.7v.2h0ZM358.5,212.9c-.1,23.4-16.7,43.5-39.7,48.2-14.1,2.9-26.8-.4-38.6-8.1-10.8-7.1-18.8-16.5-22.4-29.2-1.2-4.2-1.5-8.5-1.4-12.9.2-6.2.5-12.4,2.6-18.3,5.5-15.8,16.5-25.7,32.5-30,26.1-7.1,57,7.7,65,36.7,1.2,4.4,2.1,13.6,1.9,13.6h.1Z"/>
          </g>
        </g>
      </g>
    </g>
  </g>
</svg>